<svg width="30" height="30" version="1.1" viewBox="0 0 7.9375 7.9375" xmlns="http://www.w3.org/2000/svg">
 <path d="m3.9687 0.12605c-2.1222 0-3.8427 1.7205-3.8427 3.8427 0 1.8145 1.258 3.3343 2.9493 3.7372-0.087495-0.020845-0.17425-0.044195-0.25938-0.070793v-0.88042s-0.1441 0.048031-0.33624 0.048031c-0.53754 0-0.76086-0.4796-0.81657-0.72051-0.033842-0.14676-0.12223-0.28584-0.21711-0.37082-0.11336-0.10109-0.16642-0.10139-0.16716-0.13597-0.00149-0.072571 0.097249-0.069611 0.1441-0.069611 0.24017 0 0.42225 0.25554 0.50679 0.38767 0.20943 0.32619 0.43422 0.38087 0.54995 0.38087 0.1441 0 0.26854-0.021581 0.35427-0.062963 0.039614-0.27904 0.16376-0.52763 0.36624-0.70558-0.90111-0.18016-1.5371-0.69701-1.5371-1.5371 0-0.43275 0.17366-0.83047 0.46304-1.1516-0.029559-0.0838-0.078771-0.25332-0.078771-0.52955 0-0.18253 0.012708-0.40659 0.096068-0.62444 0 0 0.54803 0.00384 1.0649 0.49334 0.23854-0.069463 0.49379-0.10907 0.76041-0.10907 0.26662 0 0.52187 0.03961 0.76041 0.10907 0.51684-0.4895 1.0649-0.49334 1.0649-0.49334 0.0838 0.21785 0.096068 0.44191 0.096068 0.62444 0 0.29781-0.039615 0.47147-0.063848 0.5464 0.28052 0.31821 0.44812 0.70972 0.44812 1.1348 0 0.84007-0.63597 1.3569-1.5371 1.5371 0.24061 0.21135 0.38427 0.51921 0.38427 0.86461v1.2647c-0.085131 0.026747-0.17174 0.049957-0.25938 0.070793 1.6912-0.40289 2.9493-1.9227 2.9493-3.7372 0-2.1222-1.7205-3.8427-3.8427-3.8427zm0.26795 7.6751c-0.088529 0.00624-0.1778 0.010343-0.26795 0.010343 0.090158 0 0.17928-0.00428 0.26795-0.010343zm0.58719-0.086314c-0.17203 0.039168-0.34836 0.06666-0.52837 0.081882 0.18002-0.015221 0.35634-0.042863 0.52837-0.081882zm-0.85515 0.096659c-0.090158 0-0.17943-0.0041-0.26795-0.010344 0.088678 0.00606 0.1778 0.010344 0.26795 0.010344zm-0.32693-0.014784c-0.17987-0.015222-0.35634-0.042714-0.52822-0.081882 0.17203 0.039019 0.34836 0.06666 0.52822 0.081881z" fill="#fff" stroke-width=".1478"/>
</svg>
