<svg width="30" height="30" version="1.1" viewBox="0 0 30 30" xmlns="http://www.w3.org/2000/svg">
 <path d="m15 0.15a14.85 14.85 0 1 0 0 29.7 14.85 14.85 0 1 0 0-29.7z" fill="#0288d1" stroke-width=".7425"/>
 <path d="m7.575 11.288h2.97v11.138h-2.97zm1.4761-1.485h-0.016335c-0.88654 0-1.4598-0.66082-1.4598-1.4857 0-0.84274 0.59103-1.4843 1.4932-1.4843 0.90362 0 1.4598 0.64152 1.4768 1.4843 0 0.82492-0.57321 1.4857-1.4939 1.4857zm14.116 5.5688c0-2.2557-1.828-4.0838-4.0838-4.0838-1.3825 0-2.6025 0.68904-3.3412 1.7404v-1.7404h-2.97v11.138h2.97v-5.94c0-1.2303 0.99718-2.2275 2.2275-2.2275s2.2275 0.99718 2.2275 2.2275v5.94h2.97v-7.0538z" fill="#fff" stroke-width=".7425"/>
</svg>
