<svg width="30" height="30" fill="none" version="1.1" viewBox="0 0 .9 .9" xmlns="http://www.w3.org/2000/svg">
 <path d="m0.0092611 0.12108c-0.004459-0.063032 0.048926-0.11209 0.11198-0.11209h0.13498c0.032369 0 0.061564 0.019507 0.074014 0.049445l0.056445 0.13575c0.013749 0.03307 0.004018 0.071265-0.023927 0.093644l-0.035187 0.028204c-0.015704 0.012588-0.021041 0.03429-0.011731 0.052138 0.047848 0.091697 0.11856 0.16952 0.20456 0.22588 0.01815 0.011892 0.04213 0.007164 0.055672-0.0098l0.036667-0.045933c0.022334-0.027974 0.060448-0.03775 0.093448-0.023971l0.13547 0.056563c0.02988 0.012475 0.049344 0.041733 0.049344 0.074167v0.13566c0 0.063191-0.050764 0.11446-0.11366 0.10999-0.40221-0.028616-0.73956-0.36569-0.76808-0.76965z" fill="#fff" stroke-width=".0441"/>
</svg>
