<?xml version="1.0" standalone="no"?><svg xmlns="http://www.w3.org/2000/svg" viewBox="0 0 1440 320"><path fill="#5F85DB" fill-opacity="0.9" d="M0,256L40,229.3C80,203,160,149,240,144C320,139,400,181,480,181.3C560,181,640,139,720,112C800,85,880,75,960,69.3C1040,64,1120,64,1200,90.7C1280,117,1360,171,1400,197.3L1440,224L1440,320L1400,320C1360,320,1280,320,1200,320C1120,320,1040,320,960,320C880,320,800,320,720,320C640,320,560,320,480,320C400,320,320,320,240,320C160,320,80,320,40,320L0,320Z"></path></svg>